<svg xmlns="http://www.w3.org/2000/svg" width="1024" height="1024" fill="none" viewBox="0 0 1024 1024"><defs><linearGradient id="bg" x1="120" x2="900" y1="90" y2="940" gradientUnits="userSpaceOnUse"><stop offset="0" stop-color="#2156B8"/><stop offset=".52" stop-color="#2D2CA6"/><stop offset="1" stop-color="#24104C"/></linearGradient><linearGradient id="ribbon" x1="132" x2="792" y1="214" y2="768" gradientUnits="userSpaceOnUse"><stop offset="0" stop-color="#FFE6A4"/><stop offset=".18" stop-color="#FFC86A"/><stop offset=".46" stop-color="#FF8E28"/><stop offset=".72" stop-color="#FF5A1F"/><stop offset="1" stop-color="#F53B58"/></linearGradient><linearGradient id="highlight" x1="215" x2="709" y1="207" y2="661" gradientUnits="userSpaceOnUse"><stop offset="0" stop-color="#FFF6D8" stop-opacity=".95"/><stop offset=".35" stop-color="#FFF1CC" stop-opacity=".42"/><stop offset="1" stop-color="#FFF" stop-opacity="0"/></linearGradient><radialGradient id="recordGlow" cx="0" cy="0" r="1" gradientTransform="translate(255 681) rotate(90) scale(111)" gradientUnits="userSpaceOnUse"><stop offset="0" stop-color="#FFE39B"/><stop offset=".4" stop-color="#FF7B3D"/><stop offset="1" stop-color="#9D113D"/></radialGradient><filter id="shadow" width="938" height="794" x="44" y="118" color-interpolation-filters="sRGB" filterUnits="userSpaceOnUse"><feFlood flood-opacity="0" result="BackgroundImageFix"/><feColorMatrix in="SourceAlpha" result="hardAlpha" type="matrix" values="0 0 0 0 0 0 0 0 0 0 0 0 0 0 0 0 0 0 127 0"/><feOffset dx="0" dy="28"/><feGaussianBlur stdDeviation="30"/><feColorMatrix type="matrix" values="0 0 0 0 0.12 0 0 0 0 0.04 0 0 0 0 0.22 0 0 0 0.42 0"/><feBlend in2="BackgroundImageFix" mode="normal" result="effect1_dropShadow_1_3"/><feBlend in="SourceGraphic" in2="effect1_dropShadow_1_3" mode="normal" result="shape"/></filter></defs><rect width="1024" height="1024" fill="url(#bg)" rx="232"/><g filter="url(#shadow)"><path stroke="url(#ribbon)" stroke-linecap="round" stroke-linejoin="round" stroke-width="76" d="M210 719C152 719 106 681 99 622C90 552 147 488 219 488C327 488 338 642 414 642C469 642 488 568 523 506C569 425 635 319 763 319C868 319 934 398 934 490C934 584 867 657 771 657C697 657 644 617 592 558C566 529 541 503 503 503C451 503 426 560 396 610C346 691 300 719 210 719Z"/><path stroke="url(#ribbon)" stroke-linecap="round" stroke-linejoin="round" stroke-width="76" d="M207 721L327 646"/><path stroke="url(#highlight)" stroke-linecap="round" stroke-linejoin="round" stroke-width="27" d="M210 719C152 719 106 681 99 622C90 552 147 488 219 488C327 488 338 642 414 642C469 642 488 568 523 506C569 425 635 319 763 319C868 319 934 398 934 490C934 584 867 657 771 657C697 657 644 617 592 558C566 529 541 503 503 503C451 503 426 560 396 610C346 691 300 719 210 719Z" opacity=".9"/><circle cx="255" cy="681" r="94" fill="url(#recordGlow)"/><circle cx="255" cy="681" r="66" stroke="#FFF3FF" stroke-width="16" opacity=".95"/><circle cx="255" cy="681" r="42" fill="#FF3B37"/><path fill="#FFF7F3" d="M623 496L799 619C818 632 818 660 799 673L623 796C602 811 575 795 575 770V522C575 497 602 481 623 496Z"/><path fill="url(#highlight)" d="M623 496L799 619C818 632 818 660 799 673L623 796C602 811 575 795 575 770V522C575 497 602 481 623 496Z" opacity=".18"/></g></svg>